<?xml version="1.0" encoding="UTF-8"?>
<svg id="uuid-8573e07b-56b7-4b64-bd08-9c5807d3b340" data-name="Layer 1" fill="none" xmlns="http://www.w3.org/2000/svg" width="168" height="68" viewBox="0 0 168 68">
<path d="M97.0566 46.7099V49.6111C97.0566 50.3187 97.4812 50.531 98.1888 50.531H103.92V49.6111H98.3303C98.118 49.6111 98.118 49.5403 98.118 49.3281V46.993C98.118 46.7807 98.1888 46.7099 98.3303 46.7099H103.92V45.79H98.1888C97.4812 45.79 97.0566 46.0023 97.0566 46.7099Z" fill="white"/>
<path d="M49.9297 46.71H45.1888C44.4812 46.71 44.0566 46.993 44.0566 47.6298V49.5404C44.0566 50.248 44.4812 50.4603 45.1888 50.4603H49.9297C50.6373 50.4603 51.0619 50.1772 51.0619 49.5404V47.6298C51.0619 46.993 50.6373 46.71 49.9297 46.71ZM50.0005 49.3281C50.0005 49.5404 49.9297 49.6111 49.7882 49.6111H45.3303C45.118 49.6111 45.118 49.5404 45.118 49.3281V47.9129C45.118 47.7006 45.1888 47.6298 45.3303 47.6298H49.7882C50.0005 47.6298 50.0005 47.7006 50.0005 47.9129V49.3281Z" fill="white"/>
<path d="M93.6599 46.1438C93.4476 45.79 93.3769 45.79 92.8108 45.79H91.6079C91.1833 45.79 91.0418 45.79 90.8295 46.1438L88.1406 50.531H89.4143L89.9804 49.6111H94.509L95.0751 50.531H96.3488L93.6599 46.1438ZM90.4757 48.6912L91.6079 46.7807C91.6786 46.6392 91.7494 46.6392 92.0324 46.6392H92.5278C92.74 46.6392 92.74 46.6392 92.8816 46.7807L94.0137 48.6912H90.4757Z" fill="white"/>
<path d="M117.79 46.7099H123.38V45.79H117.577C116.87 45.79 116.445 46.0731 116.445 46.7099V49.6111C116.445 50.3187 116.87 50.531 117.577 50.531H123.38V47.6298H119.063V48.4789H122.318V49.5403H117.79C117.577 49.5403 117.577 49.4696 117.577 49.2573V46.9222C117.507 46.7807 117.577 46.7099 117.79 46.7099Z" fill="white"/>
<path d="M113.826 49.5403C113.826 49.6111 113.755 49.6111 113.685 49.6111C113.543 49.6111 113.472 49.6111 113.402 49.4695L110.217 46.0023C110.005 45.79 109.934 45.7192 109.368 45.7192H108.519C108.165 45.7192 107.953 45.79 107.953 46.2146V50.4602H109.015V46.7099C109.015 46.6391 109.015 46.5684 109.156 46.5684C109.298 46.5684 109.368 46.5684 109.439 46.7099L112.623 50.1771C112.836 50.3894 112.906 50.4602 113.472 50.4602H114.251C114.605 50.4602 114.817 50.3894 114.817 49.9649V45.7192H113.755V49.5403H113.826Z" fill="white"/>
<path d="M106.609 45.79H105.477V50.531H106.609V45.79Z" fill="white"/>
<path d="M84.6024 48.6204H85.9469C86.6545 48.6204 87.079 48.4789 87.079 47.8421V46.7099C87.079 46.0023 86.6545 45.79 85.9469 45.79H80.1445V50.531H81.2767V46.7099H85.7346C85.9469 46.7099 85.9469 46.7807 85.9469 46.993V47.6298C85.9469 47.8421 85.8761 47.9128 85.7346 47.9128H83.4703C83.258 47.9128 83.1872 47.9836 83.1872 48.1959V48.5497C83.1872 48.762 83.258 48.8327 83.541 49.045L85.8053 50.6017H87.6451L84.6024 48.6204Z" fill="white"/>
<path d="M75.1915 46.71H70.0967V47.5591H75.1207C75.333 47.5591 75.333 47.6298 75.333 47.8421V48.1959H70.4505C69.7429 48.1959 69.3184 48.4082 69.3184 49.045V49.6111C69.3184 50.248 69.7429 50.531 70.4505 50.531H76.3944V47.7006C76.3236 46.993 75.9698 46.71 75.1915 46.71ZM75.333 49.6819H70.5213C70.309 49.6819 70.309 49.6111 70.309 49.3988V49.2573C70.309 49.045 70.3798 48.9743 70.5213 48.9743H75.333V49.6819Z" fill="white"/>
<path d="M66.771 45.2241V46.71H61.9593C61.2517 46.71 60.8271 46.9931 60.8271 47.6299V49.5405C60.8271 50.2481 61.2517 50.4603 61.9593 50.4603H67.8324V45.1533H66.771V45.2241ZM66.771 49.6112H62.1008C61.8886 49.6112 61.8886 49.5405 61.8886 49.3282V47.913C61.8886 47.7007 61.9593 47.6299 62.1008 47.6299H66.771V49.6112Z" fill="white"/>
<path d="M58.2799 46.71H52.4775V50.531H53.5389V47.6298H58.1384C58.3506 47.6298 58.3506 47.7006 58.3506 47.9129V50.531H59.412V47.7006C59.412 46.993 58.9875 46.71 58.2799 46.71Z" fill="white"/>
<path d="M41.5094 47.6298H36.8392V45.79H35.707V50.531H36.8392V48.4789H41.5094V50.531H42.6415V45.79H41.5094V47.6298Z" fill="white"/>
<path opacity="0.25" d="M80.8526 25.3403C82.1263 25.3403 82.6216 25.3403 82.9047 25.3403C82.9754 25.3403 83.0462 25.3404 83.0462 25.4111C83.117 25.4819 83.0462 25.5526 82.9754 25.5526C82.8339 25.6234 81.631 26.4725 81.4895 26.5433C80.4281 27.2509 79.4374 27.8877 78.3053 28.6661C78.3053 28.6661 77.8807 28.9491 77.5977 29.2322C77.4561 29.3737 77.0316 29.7275 76.8193 29.9398C76.3947 30.3643 76.1825 30.5766 75.7579 31.2134L77.3854 25.3403C77.3146 25.3403 79.7912 25.3403 80.8526 25.3403ZM113.685 16C110.43 16 107.954 16.4246 105.76 17.4152C103.425 18.4058 101.232 19.8918 99.3918 21.7316C98.1181 22.9345 97.0567 24.2789 96.2076 25.7649C96.1368 25.9064 96.1368 25.9064 96.0661 26.048C96.0661 25.9772 96.0661 25.9772 96.1368 25.8357C96.3491 24.7743 96.2784 23.6421 96.0661 22.5099C95.783 21.1655 95.1462 19.9626 94.2263 18.9012C93.3064 17.8398 92.1035 16.9906 90.9006 16.5661C89.6269 16.1415 88.2825 16.0708 87.0795 16.0708H66.9836L64.224 25.1988H53.6099L56.1573 16H42.9959L35 44.0918H48.0906L50.9918 34.3977H61.5351L58.7754 44.0918H71.8661L74.2719 35.8129C74.2719 37.5819 74.7673 39.2094 75.9702 40.8368C77.1731 42.3228 78.6591 43.3134 80.5696 43.738C81.914 44.0918 83.683 44.0918 85.3105 44.0918C85.5936 44.0918 123.733 44.0918 123.733 44.0918L126.351 34.7515C126.351 34.7515 112.907 34.7515 112.765 34.7515C111.28 34.7515 109.723 34.6807 108.591 34.0439C106.963 33.124 107.105 31.2134 107.246 30.6474C107.317 30.2936 107.388 29.7982 107.883 28.8784C108.52 27.7462 109.511 26.8263 110.643 26.1895C112.27 25.2696 114.251 25.2696 116.091 25.2696C120.125 25.2696 128.97 25.2696 128.97 25.2696L131.8 16H113.685ZM87.6456 34.6807C87.5749 34.6807 87.5041 34.6099 87.5041 34.6099C87.5041 34.5392 87.5041 34.5392 87.5749 34.4684L92.245 31.355C92.245 31.355 92.5281 31.1427 92.8111 30.9304C93.3064 30.5766 93.448 30.4351 93.6602 30.2228C94.014 29.9398 94.0848 29.7982 94.3678 29.4444C94.4386 29.3737 94.4386 29.3737 94.4386 29.3029C94.4386 29.3029 94.3678 29.4444 94.2263 30.152C93.8725 31.5673 93.731 33.124 93.8725 34.5392C92.1035 34.6807 87.6456 34.6807 87.6456 34.6807Z" fill="white"/>
<path d="M77.5975 30.5059C74.8378 33.1947 74.7671 37.2988 76.9606 40.0585C78.022 41.4029 79.2957 42.1813 80.994 42.6059C82.763 43.0304 85.2396 42.9597 87.2209 42.9597C119.771 42.9597 123.096 42.9597 123.096 42.9597L125.078 35.8129C125.078 35.8129 117.719 35.8129 113.614 35.8129C111.845 35.8129 109.652 35.8836 108.095 35.0345C106.468 34.1146 105.902 32.3456 106.255 30.5766H95.2875C94.863 32.4164 94.7922 34.1854 95.0753 35.7421C95.0753 35.7421 89.0606 35.7421 87.5039 35.7421C86.6548 35.7421 86.2302 35.3176 86.1595 34.8222C86.0887 34.3977 86.301 34.0439 86.6548 33.8316C86.9378 33.6193 87.1501 33.4778 87.4332 33.3363C88.07 32.9117 91.608 30.5766 91.608 30.5766L77.5975 30.5059Z" fill="white"/>
<path d="M36.415 42.9597H47.3121L50.1425 33.407H62.9501L60.2612 42.9597H71.1583L74.6963 30.5059H39.9531L36.415 42.9597Z" fill="white"/>
<path d="M95.5703 29.4445H106.467C107.104 27.6755 108.519 26.1896 110.147 25.3404C111.987 24.279 114.039 24.279 116.091 24.279C120.124 24.279 128.191 24.279 128.191 24.279L130.384 16.9907C130.384 16.9907 118.284 16.9907 113.685 16.9907C111.067 16.9907 108.59 17.2738 106.114 18.3352C103.849 19.3258 101.797 20.6703 100.028 22.4393C98.1177 24.4205 96.4902 26.8264 95.5703 29.4445Z" fill="white"/>
<path d="M78.871 29.4446H93.023C94.8628 27.7463 95.5704 25.0574 95.0043 22.6516C94.7213 21.4487 94.1552 20.3873 93.3768 19.4674C92.5985 18.6182 91.6078 17.8399 90.4756 17.4861C89.2727 17.0615 87.9283 17.0615 86.7254 17.0615C85.7347 17.0615 68.1154 17.0615 67.7616 17.0615L64.9312 26.1896H52.1236L54.7417 17.0615H43.8447L40.3066 29.5153H75.0499L76.5359 24.3498C77.385 24.3498 82.9043 24.3498 83.1873 24.3498C83.3996 24.3498 83.6827 24.3498 83.8242 24.4913C84.2487 24.7036 84.3903 25.3405 84.178 25.765C84.0365 26.1188 83.6827 26.4019 83.3289 26.6142C82.9043 26.8972 82.4797 27.1802 82.0552 27.4633C80.9938 28.0294 80.0031 28.737 78.871 29.4446Z" fill="white"/>
</svg>
